# xmcd CD database file
#
# Track frame offsets:
#	150
#	21912
#	42566
#	64489
#	86268
#	113035
#	132931
#	158628
#	180321
#	200075
#	222262
#	243192
#	267567
#	288072
#	308592
#
# Disc length: 4490 seconds
#
# Revision: 1
# Processed by: cddbd v1.5.1PL2 Copyright (c) Steve Scherf et al.
# Submitted via: CDex 1.51
#
DISCID=d111880f
DTITLE=Maelo Ruiz - Grandes Exitos
DYEAR=2000
DGENRE=Salsa
TTITLE0=Si volvieras a mi
TTITLE1=Sera que si
TTITLE2=Te va a doler
TTITLE3=Juegate a la suerte
TTITLE4=Mi mundo es de ella
TTITLE5=Así eres tu
TTITLE6=Nadie igual que tu
TTITLE7=Por favor señora
TTITLE8=Te amo
TTITLE9=La primera Noche
TTITLE10=Esperando un nuevo amor
TTITLE11=El reloj cucu
TTITLE12=Enamorada
TTITLE13=Experiencia religiosa
TTITLE14=Contra viento y marea
EXTD=YEAR: 2000
EXTT0=
EXTT1=
EXTT2=
EXTT3=
EXTT4=
EXTT5=
EXTT6=
EXTT7=
EXTT8=
EXTT9=
EXTT10=
EXTT11=
EXTT12=
EXTT13=
EXTT14=
PLAYORDER=
